# xmcd
#
# Track frame offsets:
#	182
#	14280
#	25970
#	37427
#	49445
#	63237
#	77007
#	88162
#	103762
#	117192
#	131055
#	143900
#	156577
#	169810
#	183490
#	197862
#	211672
#	224560
#	239175
#	251942
#	266142
#	278840
#	291240
#	304967
#
# Disc length: 4209 seconds
#
# Revision: 1
# Processed by: cddbd v1.5.1PL0 Copyright (c) Steve Scherf et al.
# Submitted via: CDex 1.50Beta5
#
DISCID=8a106f18
DTITLE=Stellio Et Son Orchestre Antill - L'将アtoile De La Musique Cr将アoleCalalou [UK]
DYEAR=1900
DGENRE=General
TTITLE0=S将エpent Maigre
TTITLE1=Ah! G将、d将ア Chabine-L将「
TTITLE2=M将アm将アe La Cr将アole
TTITLE3=Paris-Biguine
TTITLE4=Alberte Et Andr将ア
TTITLE5=Sta-Viska
TTITLE6=Mussieu Dollar
TTITLE7=Calalou
TTITLE8=La Nuit
TTITLE9=En L'Ai Mone La
TTITLE10=Finotte
TTITLE11=Ou将ア, Ou将ア, Ou将ア, Ou将ア (Manman...La Gr将イve Barr将ア Moin)
TTITLE12=Yaya, Moin Ni L'Agent
TTITLE13=Douce Esp将アrance
TTITLE14=Nana Ou Gros Zozo
TTITLE15=Pleurez, Pleurez Chabin
TTITLE16=Ti-Citron
TTITLE17=Mussieu Satan Fach将ア
TTITLE18=将「 L'Ombre Des Palmiers
TTITLE19=Moin Belle! Moin Jeune!
TTITLE20=Conversation
TTITLE21=V'Loppez Moin Doudou
TTITLE22=Chanson Cannes
TTITLE23=En Sens Unique, S.V.P
EXTD=
EXTT0=
EXTT1=
EXTT2=
EXTT3=
EXTT4=
EXTT5=
EXTT6=
EXTT7=
EXTT8=
EXTT9=
EXTT10=
EXTT11=
EXTT12=
EXTT13=
EXTT14=
EXTT15=
EXTT16=
EXTT17=
EXTT18=
EXTT19=
EXTT20=
EXTT21=
EXTT22=
EXTT23=
PLAYORDER=
